<mxfile host="drawio-plugin" modified="2024-08-20T15:05:28.280Z" agent="Mozilla/5.0 (Macintosh; Intel Mac OS X 10_15_7) AppleWebKit/537.36 (KHTML, like Gecko) Chrome/122.0.0.0 Safari/537.36" etag="2VwUSfmqXSbwuxGTRglT" version="22.1.22" type="embed">
  <diagram id="w-KbkKkKTUAtWDhybSNr" name="Page-1">
    <mxGraphModel dx="1466" dy="1082" grid="1" gridSize="10" guides="1" tooltips="1" connect="1" arrows="1" fold="1" page="1" pageScale="1" pageWidth="850" pageHeight="1100" math="0" shadow="0">
      <root>
        <mxCell id="0" />
        <mxCell id="1" parent="0" />
        <mxCell id="43" value="&lt;p style=&quot;margin:0px;margin-top:4px;margin-left:10px;text-align:left;&quot;&gt;&lt;b&gt;mindAI&lt;/b&gt;&lt;/p&gt;" style="html=1;shape=mxgraph.sysml.package;html=1;overflow=fill;whiteSpace=wrap;labelX=106;" vertex="1" parent="1">
          <mxGeometry x="880" y="160" width="1560" height="710" as="geometry" />
        </mxCell>
        <mxCell id="31" value="&lt;p style=&quot;margin:0px;margin-top:4px;margin-left:10px;text-align:left;&quot;&gt;&lt;b&gt;Cognitive Processing&lt;/b&gt;&lt;/p&gt;" style="html=1;shape=mxgraph.sysml.package;html=1;overflow=fill;whiteSpace=wrap;labelX=143;" parent="1" vertex="1">
          <mxGeometry x="1280" y="411.25" width="1115" height="218.75" as="geometry" />
        </mxCell>
        <mxCell id="34" value="&lt;p style=&quot;margin:0px;margin-top:4px;margin-left:10px;text-align:left;&quot;&gt;&lt;b&gt;Communication and Interaction&lt;/b&gt;&lt;/p&gt;" style="html=1;shape=mxgraph.sysml.package;html=1;overflow=fill;whiteSpace=wrap;labelX=202;" parent="1" vertex="1">
          <mxGeometry x="1280" y="670" width="630" height="151.25" as="geometry" />
        </mxCell>
        <mxCell id="23" value="&lt;p style=&quot;margin:0px;margin-top:4px;margin-left:10px;text-align:left;&quot;&gt;&lt;b&gt;Sensory Input&lt;/b&gt;&lt;/p&gt;" style="html=1;shape=mxgraph.sysml.package;html=1;overflow=fill;whiteSpace=wrap;labelX=106;" parent="1" vertex="1">
          <mxGeometry x="1280" y="210" width="645" height="151.25" as="geometry" />
        </mxCell>
        <mxCell id="2" value="&lt;b&gt;Speech&lt;/b&gt;" style="html=1;dropTarget=0;whiteSpace=wrap;" parent="1" vertex="1">
          <mxGeometry x="1510" y="710" width="180" height="90" as="geometry" />
        </mxCell>
        <mxCell id="3" value="" style="shape=module;jettyWidth=8;jettyHeight=4;" parent="2" vertex="1">
          <mxGeometry x="1" width="20" height="20" relative="1" as="geometry">
            <mxPoint x="-27" y="7" as="offset" />
          </mxGeometry>
        </mxCell>
        <mxCell id="4" value="&lt;b&gt;Vision&lt;/b&gt;" style="html=1;dropTarget=0;whiteSpace=wrap;" parent="1" vertex="1">
          <mxGeometry x="1715" y="251.25" width="180" height="90" as="geometry" />
        </mxCell>
        <mxCell id="5" value="" style="shape=module;jettyWidth=8;jettyHeight=4;" parent="4" vertex="1">
          <mxGeometry x="1" width="20" height="20" relative="1" as="geometry">
            <mxPoint x="-27" y="7" as="offset" />
          </mxGeometry>
        </mxCell>
        <mxCell id="6" value="&lt;b&gt;Text&lt;br&gt;&lt;/b&gt;" style="html=1;dropTarget=0;whiteSpace=wrap;fillColor=#d5e8d4;strokeColor=#82b366;" parent="1" vertex="1">
          <mxGeometry x="1310" y="251.25" width="180" height="90" as="geometry" />
        </mxCell>
        <mxCell id="7" value="" style="shape=module;jettyWidth=8;jettyHeight=4;" parent="6" vertex="1">
          <mxGeometry x="1" width="20" height="20" relative="1" as="geometry">
            <mxPoint x="-27" y="7" as="offset" />
          </mxGeometry>
        </mxCell>
        <mxCell id="8" value="&lt;b&gt;Core&lt;br&gt;&lt;/b&gt;" style="html=1;dropTarget=0;whiteSpace=wrap;fillColor=#ffe6cc;strokeColor=#d79b00;" parent="1" vertex="1">
          <mxGeometry x="920" y="490" width="180" height="90" as="geometry" />
        </mxCell>
        <mxCell id="9" value="" style="shape=module;jettyWidth=8;jettyHeight=4;" parent="8" vertex="1">
          <mxGeometry x="1" width="20" height="20" relative="1" as="geometry">
            <mxPoint x="-27" y="7" as="offset" />
          </mxGeometry>
        </mxCell>
        <mxCell id="10" value="&lt;b&gt;Reasoning&lt;br&gt;&lt;/b&gt;" style="html=1;dropTarget=0;whiteSpace=wrap;fillColor=#ffe6cc;strokeColor=#d79b00;" parent="1" vertex="1">
          <mxGeometry x="1310" y="480" width="180" height="90" as="geometry" />
        </mxCell>
        <mxCell id="11" value="" style="shape=module;jettyWidth=8;jettyHeight=4;" parent="10" vertex="1">
          <mxGeometry x="1" width="20" height="20" relative="1" as="geometry">
            <mxPoint x="-27" y="7" as="offset" />
          </mxGeometry>
        </mxCell>
        <mxCell id="12" value="&lt;b&gt;Audition&lt;/b&gt;" style="html=1;dropTarget=0;whiteSpace=wrap;" parent="1" vertex="1">
          <mxGeometry x="1512.5" y="251.25" width="180" height="90" as="geometry" />
        </mxCell>
        <mxCell id="13" value="" style="shape=module;jettyWidth=8;jettyHeight=4;" parent="12" vertex="1">
          <mxGeometry x="1" width="20" height="20" relative="1" as="geometry">
            <mxPoint x="-27" y="7" as="offset" />
          </mxGeometry>
        </mxCell>
        <mxCell id="45" value="&lt;p style=&quot;margin:0px;margin-top:4px;margin-left:10px;text-align:left;&quot;&gt;&lt;b&gt;Tools&lt;/b&gt;&lt;/p&gt;" style="html=1;shape=mxgraph.sysml.package;html=1;overflow=fill;whiteSpace=wrap;labelX=143;" vertex="1" parent="1">
          <mxGeometry x="1527.5" y="440" width="830" height="160" as="geometry" />
        </mxCell>
        <mxCell id="14" value="&lt;b&gt;Memory&lt;br&gt;&lt;/b&gt;" style="html=1;dropTarget=0;whiteSpace=wrap;fillColor=#ffe6cc;strokeColor=#d79b00;" parent="1" vertex="1">
          <mxGeometry x="1750" y="480" width="180" height="90" as="geometry" />
        </mxCell>
        <mxCell id="15" value="" style="shape=module;jettyWidth=8;jettyHeight=4;" parent="14" vertex="1">
          <mxGeometry x="1" width="20" height="20" relative="1" as="geometry">
            <mxPoint x="-27" y="7" as="offset" />
          </mxGeometry>
        </mxCell>
        <mxCell id="16" value="&lt;b&gt;API Requests&lt;/b&gt;" style="html=1;dropTarget=0;whiteSpace=wrap;fillColor=#d5e8d4;strokeColor=#82b366;" parent="1" vertex="1">
          <mxGeometry x="2146.25" y="480" width="180" height="90" as="geometry" />
        </mxCell>
        <mxCell id="17" value="" style="shape=module;jettyWidth=8;jettyHeight=4;" parent="16" vertex="1">
          <mxGeometry x="1" width="20" height="20" relative="1" as="geometry">
            <mxPoint x="-27" y="7" as="offset" />
          </mxGeometry>
        </mxCell>
        <mxCell id="35" value="&lt;b&gt;Visual Output&lt;br&gt;&lt;/b&gt;" style="html=1;dropTarget=0;whiteSpace=wrap;" parent="1" vertex="1">
          <mxGeometry x="1710" y="710" width="180" height="90" as="geometry" />
        </mxCell>
        <mxCell id="36" value="" style="shape=module;jettyWidth=8;jettyHeight=4;" parent="35" vertex="1">
          <mxGeometry x="1" width="20" height="20" relative="1" as="geometry">
            <mxPoint x="-27" y="7" as="offset" />
          </mxGeometry>
        </mxCell>
        <mxCell id="37" value="&lt;b&gt;Text Generation&lt;br&gt;&lt;/b&gt;" style="html=1;dropTarget=0;whiteSpace=wrap;fillColor=#d5e8d4;strokeColor=#82b366;" parent="1" vertex="1">
          <mxGeometry x="1300" y="710" width="180" height="90" as="geometry" />
        </mxCell>
        <mxCell id="38" value="" style="shape=module;jettyWidth=8;jettyHeight=4;" parent="37" vertex="1">
          <mxGeometry x="1" width="20" height="20" relative="1" as="geometry">
            <mxPoint x="-25" y="5" as="offset" />
          </mxGeometry>
        </mxCell>
        <mxCell id="39" value="&lt;b&gt;Context&lt;br&gt;&lt;/b&gt;" style="html=1;dropTarget=0;whiteSpace=wrap;fillColor=#ffe6cc;strokeColor=#d79b00;" parent="1" vertex="1">
          <mxGeometry x="1547.5" y="480" width="180" height="90" as="geometry" />
        </mxCell>
        <mxCell id="40" value="" style="shape=module;jettyWidth=8;jettyHeight=4;" parent="39" vertex="1">
          <mxGeometry x="1" width="20" height="20" relative="1" as="geometry">
            <mxPoint x="-27" y="7" as="offset" />
          </mxGeometry>
        </mxCell>
        <mxCell id="41" value="&lt;b&gt;Scheduling&lt;br&gt;&lt;/b&gt;" style="html=1;dropTarget=0;whiteSpace=wrap;fillColor=#ffe6cc;strokeColor=#d79b00;" parent="1" vertex="1">
          <mxGeometry x="1950" y="480" width="180" height="90" as="geometry" />
        </mxCell>
        <mxCell id="42" value="" style="shape=module;jettyWidth=8;jettyHeight=4;" parent="41" vertex="1">
          <mxGeometry x="1" width="20" height="20" relative="1" as="geometry">
            <mxPoint x="-27" y="7" as="offset" />
          </mxGeometry>
        </mxCell>
      </root>
    </mxGraphModel>
  </diagram>
</mxfile>
